<?xml version="1.0" standalone="no"?>
<!DOCTYPE svg PUBLIC "-//W3C//DTD SVG 20010904//EN"
 "http://www.w3.org/TR/2001/REC-SVG-20010904/DTD/svg10.dtd">
<svg version="1.0" xmlns="http://www.w3.org/2000/svg"
 width="500.000000pt" height="500.000000pt" viewBox="0 0 500.000000 500.000000"
 preserveAspectRatio="xMidYMid meet">
<metadata>
Created by potrace 1.14, written by Peter Selinger 2001-2017
</metadata>
<g transform="translate(0.000000,500.000000) scale(0.100000,-0.100000)"
fill="#000000" stroke="none">
<path d="M0 2500 l0 -2500 2500 0 2500 0 0 2500 0 2500 -2500 0 -2500 0 0
-2500z m793 1922 l229 -67 461 -368 c254 -203 465 -371 469 -375 4 -4 -8 -7
-25 -7 -27 0 -89 45 -397 290 -423 337 -439 349 -445 343 -3 -3 -2 -25 1 -51
7 -50 -32 -16 592 -511 158 -125 172 -139 160 -156 -40 -56 -94 -119 -102
-120 -6 0 -649 507 -757 597 -11 9 -24 10 -52 2 -40 -11 -44 -16 -23 -33 47
-37 773 -621 781 -628 6 -5 3 -14 -7 -24 -20 -21 34 -61 -492 361 l-423 340
-132 235 c-72 129 -131 239 -131 244 0 13 42 3 293 -72z m1703 -388 c85 -58
214 -176 214 -195 0 -32 -90 -177 -210 -341 -30 -40 -39 -47 -61 -42 -34 6
-309 124 -339 145 l-24 16 24 39 c13 21 64 93 114 159 49 66 101 136 115 155
38 52 83 90 107 90 12 0 39 -12 60 -26z m411 -295 c64 -50 263 -256 263 -272
-1 -27 -318 -437 -339 -437 -4 0 -5 42 -3 93 4 93 4 94 -27 129 -16 19 -71 56
-121 83 -49 26 -90 53 -90 60 0 32 235 385 257 385 3 0 30 -19 60 -41z m-862
-243 c217 -82 653 -281 678 -308 29 -34 16 -200 -18 -228 -19 -15 -242 -50
-323 -50 -82 0 -120 17 -199 90 -48 44 -74 60 -94 60 -44 0 -48 -36 -14 -120
15 -37 24 -73 21 -79 -4 -6 -27 -16 -51 -22 -46 -12 -85 -41 -85 -64 0 -23 53
-53 161 -91 127 -44 146 -54 186 -96 60 -62 503 -828 503 -869 0 -11 -20 -33
-50 -55 -78 -56 -77 -98 3 -111 l40 -6 -7 -116 c-13 -228 -79 -916 -89 -929
-8 -10 -85 -12 -363 -10 -194 2 -355 5 -358 8 -12 12 22 263 104 770 43 265
45 252 -46 401 -76 123 -442 671 -562 841 -35 49 -76 116 -92 150 l-29 61 22
39 c12 21 89 132 170 246 82 114 180 254 219 310 67 98 162 212 177 212 3 0
47 -15 96 -34z m1311 -175 c68 -58 194 -194 194 -210 0 -5 -11 -25 -25 -45
-34 -50 -367 -426 -449 -505 l-65 -64 -43 12 c-51 15 -234 109 -250 128 -14
17 -1 36 238 353 203 270 302 390 319 390 6 0 42 -27 81 -59z m366 -373 c33
-35 82 -96 109 -137 43 -64 48 -76 37 -92 -20 -28 -420 -361 -503 -419 l-75
-51 -39 30 c-48 38 -99 95 -113 127 -9 20 -5 30 29 76 89 117 467 528 486 528
5 0 36 -28 69 -62z m-1454 -92 c25 -9 350 -262 868 -676 456 -364 835 -664
842 -667 18 -8 82 6 82 18 0 5 -176 149 -391 320 -382 305 -390 312 -365 324
14 8 51 32 82 54 l56 40 152 -123 c193 -157 589 -466 597 -466 5 0 -9 103 -14
106 -6 3 -654 518 -662 526 -14 12 15 29 38 22 10 -3 37 7 66 25 26 17 51 31
56 31 4 0 4 -33 0 -73 l-6 -74 398 -318 c219 -175 400 -320 402 -321 2 -2 4
-43 5 -91 0 -94 -12 -129 -56 -170 -34 -32 -104 -60 -168 -67 l-55 -6 -324
261 -324 260 -47 -89 c-47 -92 -101 -169 -164 -234 -19 -21 -38 -48 -40 -60
-3 -13 -7 -220 -8 -461 -3 -371 -6 -440 -18 -447 -8 -6 -106 -10 -216 -10
-167 0 -204 3 -214 15 -16 19 -9 124 31 525 53 541 47 512 117 524 22 3 42 13
46 22 6 16 -39 100 -259 474 -151 258 -275 483 -275 498 0 6 16 12 37 14 36 3
36 3 -162 163 -109 88 -200 166 -203 174 -3 9 6 7 26 -8 17 -12 48 -28 70 -35z
m452 -11 l23 -24 -42 -56 c-23 -30 -44 -62 -47 -70 -4 -8 -10 -15 -15 -15 -18
0 -203 155 -188 158 203 39 238 40 269 7z m311 -420 c12 4 20 -1 24 -15 4 -12
29 -51 57 -88 l51 -67 -44 36 c-24 19 -77 61 -116 93 -40 32 -73 60 -73 62 0
2 19 -4 42 -12 23 -8 49 -12 59 -9z"/>
<path d="M837 4300 c-14 -38 -28 -57 -62 -80 -25 -17 -45 -35 -45 -41 0 -5 17
-41 38 -79 33 -62 39 -68 62 -63 52 12 148 64 165 89 21 33 37 141 24 165 -8
15 -123 59 -155 59 -5 0 -17 -22 -27 -50z"/>
<path d="M4255 1663 c-16 -120 -58 -168 -172 -197 l-43 -11 83 -67 c46 -37 90
-70 99 -73 17 -7 122 37 152 63 49 44 75 181 40 216 -16 17 -121 98 -141 109
-8 5 -14 -7 -18 -40z"/>
</g>
</svg>
